<?xml version="1.0" standalone="no"?>
<!DOCTYPE svg PUBLIC "-//W3C//DTD SVG 20010904//EN"
 "http://www.w3.org/TR/2001/REC-SVG-20010904/DTD/svg10.dtd">
<svg version="1.0" xmlns="http://www.w3.org/2000/svg"
 width="700.000000pt" height="700.000000pt" viewBox="0 0 700.000000 700.000000"
 preserveAspectRatio="xMidYMid meet">
<metadata>
Created by potrace 1.14, written by Peter Selinger 2001-2017
</metadata>
<g transform="translate(0.000000,700.000000) scale(0.100000,-0.100000)"
fill="#000000" stroke="none">
<path d="M5978 6995 c-1 -2 -39 -6 -82 -10 -44 -3 -82 -8 -85 -10 -3 -2 -31
-6 -61 -10 -90 -11 -109 -14 -260 -51 -487 -120 -938 -343 -1345 -668 -55 -44
-248 -227 -428 -406 -181 -179 -329 -326 -330 -326 -4 -3 -404 -68 -552 -89
-22 -4 -78 -12 -125 -20 -47 -8 -103 -16 -125 -20 -48 -7 -160 -24 -195 -30
-14 -2 -43 -7 -65 -10 -22 -3 -51 -8 -65 -10 -14 -3 -43 -7 -65 -11 -22 -3
-78 -11 -125 -19 -47 -8 -103 -16 -125 -20 -22 -3 -67 -10 -100 -15 -33 -5
-78 -12 -100 -15 -22 -3 -62 -10 -90 -15 -27 -5 -70 -12 -95 -16 -25 -3 -47
-8 -50 -10 -28 -24 -1159 -1158 -1157 -1160 2 -2 61 -6 132 -9 72 -3 173 -8
225 -10 52 -2 160 -7 240 -10 80 -3 183 -8 230 -10 47 -2 164 -7 260 -11 96
-4 195 -8 220 -9 25 -2 80 -4 124 -5 l78 -2 -271 -272 c-149 -149 -271 -274
-271 -278 0 -4 56 -63 125 -131 69 -69 125 -128 125 -132 0 -3 -73 -119 -163
-256 -89 -137 -217 -333 -284 -437 l-123 -187 647 -647 c356 -356 652 -644
657 -641 6 4 67 43 136 88 69 45 217 142 330 215 113 73 249 162 302 197 53
34 100 63 105 63 4 0 64 -58 133 -129 l125 -128 278 276 277 276 1 -80 c1 -44
2 -105 4 -135 1 -30 5 -129 9 -220 4 -91 9 -208 11 -260 12 -268 16 -356 20
-475 7 -188 16 -339 19 -342 7 -7 1166 1162 1167 1176 0 9 2 25 5 36 2 11 6
38 9 60 5 36 28 181 39 245 3 14 10 60 16 103 13 86 18 119 25 157 3 14 7 43
11 65 9 67 14 99 19 125 3 14 7 41 9 60 3 19 12 82 21 140 9 58 18 118 20 133
2 16 6 40 9 55 3 15 8 43 11 62 3 19 7 46 10 60 2 14 7 45 10 70 3 25 12 83
20 130 8 47 17 101 19 120 4 31 8 53 21 140 15 98 2 81 334 415 275 277 356
364 431 458 8 11 20 24 25 31 34 38 235 330 235 341 0 2 20 37 44 77 40 69
176 340 176 353 0 3 9 24 19 48 43 95 117 314 136 400 2 10 7 27 10 37 3 10 8
27 10 37 21 97 36 166 40 199 4 21 8 46 10 54 2 8 7 40 10 70 3 30 10 89 14
130 9 75 7 469 -3 525 -4 27 -15 103 -21 145 -12 91 -54 271 -67 286 -7 10
-71 28 -80 24 -2 -1 -15 3 -31 9 -26 10 -213 44 -312 56 -54 7 -491 16 -497
10z"/>
<path d="M726 1975 c-30 -11 -116 -89 -359 -332 -175 -175 -328 -331 -340
-348 -32 -44 -30 -129 3 -178 46 -68 145 -91 212 -49 51 32 675 663 687 695
34 89 -10 184 -99 215 -42 15 -55 15 -104 -3z"/>
<path d="M1240 1468 c-27 -8 -134 -109 -492 -467 -296 -296 -462 -469 -471
-491 -54 -132 66 -256 208 -214 26 8 931 910 952 948 8 15 15 48 15 71 0 110
-101 183 -212 153z"/>
<path d="M1755 925 c-17 -9 -178 -163 -359 -344 -345 -346 -359 -363 -349
-439 12 -86 95 -150 180 -138 24 3 57 15 71 25 15 11 172 165 349 343 272 274
323 329 334 366 38 130 -104 247 -226 187z"/>
</g>
</svg>
