<svg xmlns="http://www.w3.org/2000/svg" xml:space="preserve" style="enable-background:new 0 0 512 512" viewBox="0 0 512 512">
  <path d="m121.796 269.608-48.677 74.611 94.661 94.662 74.611-48.678z" style="fill:#e6e2e0"/>
  <path d="M403.094 264.221 247.778 108.905l-137.333 21.453-85.395 85.395 111.205 4.676 155.316 155.316 4.675 111.205 85.395-85.395z" style="fill:#ee3840"/>
  <path d="M504.825 7.176c-91.794-25.474-177.32 22.004-217.459 62.143L96.056 260.628l155.316 155.316 191.309-191.309c40.138-40.139 87.617-125.666 62.144-217.459z" style="fill:#ccc4c1"/>
  <path d="M152.269 359.731c-4.628-4.628-4.628-12.133 0-16.761l164.787-164.787c4.628-4.628 12.133-4.628 16.761 0s4.628 12.133 0 16.761L169.03 359.731c-4.629 4.628-12.133 4.629-16.761 0z" style="fill:#ee3840"/>
  <circle cx="403.105" cy="108.895" r="43.796" style="fill:#fff"/>
  <path d="M3.471 432.083c-4.628-4.628-4.628-12.133 0-16.761l45.234-45.234c4.628-4.628 12.133-4.628 16.761 0s4.628 12.133 0 16.761l-45.234 45.234c-4.628 4.628-12.133 4.629-16.761 0zm76.446 76.445c-4.628-4.628-4.628-12.133 0-16.761l45.234-45.234c4.628-4.628 12.133-4.628 16.761 0s4.628 12.133 0 16.761l-45.234 45.234c-4.629 4.629-12.133 4.629-16.761 0zm-57.285-20.849c-4.628-4.628-4.628-12.133 0-16.761l63.45-63.45c4.628-4.628 12.133-4.628 16.761 0s4.628 12.133 0 16.761l-63.45 63.45c-4.628 4.628-12.132 4.628-16.761 0z" style="fill:#ffb14d"/>
</svg>
