<svg xmlns="http://www.w3.org/2000/svg" viewBox="0 0 1600 900">
  <path fill="#f0b608" d="M957 450 539 900h857z"/>
  <path fill="#e6d710" d="m957 450-84.1 450H1396z"/>
  <path fill="#e7af05" d="m-60 900 458-238 418 238z"/>
  <path fill="#e7d808" d="m337 900 61-238 418 238z"/>
  <path fill="#d8a408" d="m1203 546 349 354H876z"/>
  <path fill="#f1e213" d="m1203 546 349 354h-390z"/>
  <path fill="#f0b607" d="m641 695 245 205H367z"/>
  <path fill="#e4d506" d="m587 900 54-205 245 205z"/>
  <path fill="#eab822" d="m1710 900-309-268-305 268z"/>
  <path fill="#e8da14" d="m1710 900-309-268-36 268z"/>
  <path fill="#e8b008" d="M1210 900 971 687 725 900z"/>
  <path fill="#edde14" d="M943 900h267L971 687z"/>
</svg>
